<svg width="57" height="16" viewBox="0 0 57 16" fill="none" xmlns="http://www.w3.org/2000/svg">
<path d="M0.682528 12V0.363636H2.09162V10.75H7.50071V12H0.682528ZM13.0462 12.1818C12.2583 12.1818 11.567 11.9943 10.9723 11.6193C10.3814 11.2443 9.91927 10.7197 9.58594 10.0455C9.25639 9.37121 9.09162 8.58333 9.09162 7.68182C9.09162 6.77273 9.25639 5.97917 9.58594 5.30114C9.91927 4.62311 10.3814 4.09659 10.9723 3.72159C11.567 3.34659 12.2583 3.15909 13.0462 3.15909C13.834 3.15909 14.5234 3.34659 15.1143 3.72159C15.709 4.09659 16.1712 4.62311 16.5007 5.30114C16.834 5.97917 17.0007 6.77273 17.0007 7.68182C17.0007 8.58333 16.834 9.37121 16.5007 10.0455C16.1712 10.7197 15.709 11.2443 15.1143 11.6193C14.5234 11.9943 13.834 12.1818 13.0462 12.1818ZM13.0462 10.9773C13.6446 10.9773 14.1371 10.8239 14.5234 10.517C14.9098 10.2102 15.1958 9.80682 15.3814 9.30682C15.567 8.80682 15.6598 8.26515 15.6598 7.68182C15.6598 7.09848 15.567 6.55492 15.3814 6.05114C15.1958 5.54735 14.9098 5.14015 14.5234 4.82955C14.1371 4.51894 13.6446 4.36364 13.0462 4.36364C12.4477 4.36364 11.9553 4.51894 11.5689 4.82955C11.1825 5.14015 10.8965 5.54735 10.7109 6.05114C10.5253 6.55492 10.4325 7.09848 10.4325 7.68182C10.4325 8.26515 10.5253 8.80682 10.7109 9.30682C10.8965 9.80682 11.1825 10.2102 11.5689 10.517C11.9553 10.8239 12.4477 10.9773 13.0462 10.9773ZM22.5703 15.4545C21.9226 15.4545 21.3658 15.3712 20.8999 15.2045C20.4339 15.0417 20.0457 14.8258 19.7351 14.5568C19.4283 14.2917 19.1839 14.0076 19.0021 13.7045L20.0703 12.9545C20.1915 13.1136 20.3449 13.2955 20.5305 13.5C20.7161 13.7083 20.9699 13.8883 21.2919 14.0398C21.6177 14.1951 22.0438 14.2727 22.5703 14.2727C23.2749 14.2727 23.8563 14.1023 24.3146 13.7614C24.773 13.4205 25.0021 12.8864 25.0021 12.1591V10.3864H24.8885C24.79 10.5455 24.6499 10.7424 24.468 10.9773C24.29 11.2083 24.0324 11.4148 23.6953 11.5966C23.362 11.7746 22.9112 11.8636 22.343 11.8636C21.6385 11.8636 21.0059 11.697 20.4453 11.3636C19.8885 11.0303 19.4472 10.5455 19.1214 9.90909C18.7995 9.27273 18.6385 8.5 18.6385 7.59091C18.6385 6.69697 18.7957 5.91856 19.1101 5.25568C19.4245 4.58901 19.862 4.07386 20.4226 3.71023C20.9832 3.3428 21.6309 3.15909 22.3658 3.15909C22.9339 3.15909 23.3847 3.25379 23.718 3.44318C24.0552 3.62879 24.3127 3.84091 24.4908 4.07955C24.6726 4.31439 24.8127 4.50758 24.9112 4.65909H25.0476V3.27273H26.343V12.25C26.343 13 26.1726 13.6098 25.8317 14.0795C25.4946 14.553 25.04 14.8996 24.468 15.1193C23.8999 15.3428 23.2673 15.4545 22.5703 15.4545ZM22.5249 10.6591C23.0627 10.6591 23.5173 10.536 23.8885 10.2898C24.2597 10.0436 24.5419 9.68939 24.7351 9.22727C24.9283 8.76515 25.0249 8.21212 25.0249 7.56818C25.0249 6.93939 24.9302 6.38447 24.7408 5.90341C24.5514 5.42235 24.2711 5.04545 23.8999 4.77273C23.5286 4.5 23.0703 4.36364 22.5249 4.36364C21.9567 4.36364 21.4832 4.50758 21.1044 4.79545C20.7294 5.08333 20.4472 5.4697 20.2578 5.95455C20.0722 6.43939 19.9794 6.97727 19.9794 7.56818C19.9794 8.17424 20.0741 8.71023 20.2635 9.17614C20.4567 9.63826 20.7408 10.0019 21.1158 10.267C21.4946 10.5284 21.9643 10.6591 22.5249 10.6591ZM36.843 12.1818C36.0552 12.1818 35.3639 11.9943 34.7692 11.6193C34.1783 11.2443 33.7161 10.7197 33.3828 10.0455C33.0533 9.37121 32.8885 8.58333 32.8885 7.68182C32.8885 6.77273 33.0533 5.97917 33.3828 5.30114C33.7161 4.62311 34.1783 4.09659 34.7692 3.72159C35.3639 3.34659 36.0552 3.15909 36.843 3.15909C37.6309 3.15909 38.3203 3.34659 38.9112 3.72159C39.5059 4.09659 39.968 4.62311 40.2976 5.30114C40.6309 5.97917 40.7976 6.77273 40.7976 7.68182C40.7976 8.58333 40.6309 9.37121 40.2976 10.0455C39.968 10.7197 39.5059 11.2443 38.9112 11.6193C38.3203 11.9943 37.6309 12.1818 36.843 12.1818ZM36.843 10.9773C37.4415 10.9773 37.9339 10.8239 38.3203 10.517C38.7067 10.2102 38.9927 9.80682 39.1783 9.30682C39.3639 8.80682 39.4567 8.26515 39.4567 7.68182C39.4567 7.09848 39.3639 6.55492 39.1783 6.05114C38.9927 5.54735 38.7067 5.14015 38.3203 4.82955C37.9339 4.51894 37.4415 4.36364 36.843 4.36364C36.2446 4.36364 35.7521 4.51894 35.3658 4.82955C34.9794 5.14015 34.6934 5.54735 34.5078 6.05114C34.3222 6.55492 34.2294 7.09848 34.2294 7.68182C34.2294 8.26515 34.3222 8.80682 34.5078 9.30682C34.6934 9.80682 34.9794 10.2102 35.3658 10.517C35.7521 10.8239 36.2446 10.9773 36.843 10.9773ZM48.3445 8.43182V3.27273H49.6854V12H48.3445V10.5227H48.2536C48.049 10.9659 47.7308 11.3428 47.299 11.6534C46.8672 11.9602 46.3217 12.1136 45.6626 12.1136C45.1172 12.1136 44.6323 11.9943 44.2081 11.7557C43.7839 11.5133 43.4505 11.1496 43.2081 10.6648C42.9657 10.1761 42.8445 9.56061 42.8445 8.81818V3.27273H44.1854V8.72727C44.1854 9.36364 44.3634 9.87121 44.7195 10.25C45.0793 10.6288 45.5376 10.8182 46.0945 10.8182C46.4278 10.8182 46.7668 10.733 47.1115 10.5625C47.46 10.392 47.7517 10.1307 47.9865 9.77841C48.2251 9.42614 48.3445 8.97727 48.3445 8.43182ZM55.9368 3.27273V4.40909H51.4141V3.27273H55.9368ZM52.7322 1.18182H54.0732V9.5C54.0732 9.87879 54.1281 10.1629 54.2379 10.3523C54.3516 10.5379 54.4955 10.6629 54.6697 10.7273C54.8478 10.7879 55.0353 10.8182 55.2322 10.8182C55.38 10.8182 55.5012 10.8106 55.5959 10.7955C55.6906 10.7765 55.7663 10.7614 55.8232 10.75L56.0959 11.9545C56.005 11.9886 55.8781 12.0227 55.7152 12.0568C55.5523 12.0947 55.3459 12.1136 55.0959 12.1136C54.7171 12.1136 54.3459 12.0322 53.9822 11.8693C53.6224 11.7064 53.3232 11.4583 53.0845 11.125C52.8497 10.7917 52.7322 10.3712 52.7322 9.86364V1.18182Z" fill="#CDCDCD"/>
</svg>
